<svg width="548" height="148" viewBox="0 0 548 148" fill="none" xmlns="http://www.w3.org/2000/svg">
<path fill-rule="evenodd" clip-rule="evenodd" d="M141.98 19.3076C145.001 23.7994 149.353 32.8112 151.325 38.659C155.779 51.8708 156.456 64.7446 153.334 76.8555C152.668 79.4357 151.968 81.7021 151.778 81.8926C151.248 82.423 128.631 65.5576 112.72 52.7656C104.49 46.1493 95.6686 38.5467 89.5177 32.7683C86.7061 30.1271 84.406 28.0588 84.406 28.1722C84.406 28.5102 97.7982 47.0109 102.585 53.2852C110.861 64.134 117.565 72.1952 120.834 75.2305L121.892 76.212L120.288 75.3015C111.674 70.4107 92.4372 56.1153 75.5911 42.0852C66.5284 34.5376 66.5356 34.5432 66.9582 35.2512C67.6594 36.4263 82.806 55.2176 87.7954 61.1031C105.553 82.0485 122.367 99.0458 130.302 104.074C131.283 104.695 132.092 105.334 132.1 105.493C132.121 105.906 125.982 108.751 122.894 109.76C118.703 111.129 113.442 112.141 107.96 112.632C92.4199 114.023 73.1158 108.603 56.7424 98.2499C55.326 97.3543 54.0976 96.6904 54.013 96.775C53.8257 96.9622 55.6756 99.7045 58.8865 104.001C61.8737 107.998 71.45 117.572 75.9868 121.097C88.9484 131.167 103.536 137.289 119.387 139.311C123.46 139.831 126.38 139.934 131.915 139.756C142.541 139.414 147.164 138.18 157.823 132.842C165.218 129.139 168.177 128.165 172.155 128.125C177.251 128.073 181.651 129.971 186.288 134.221C187.714 135.528 189.398 137.343 190.031 138.255C190.665 139.17 191.333 139.76 191.522 139.572C191.71 139.383 192.15 137.888 192.5 136.249C194.402 127.33 190.817 115.908 182.79 105.317L181.053 103.024L181.645 101.347C184.065 94.4885 184.67 82.8107 183.065 73.9324C179.49 54.1512 166.706 35.7828 145.358 19.7534C142.608 17.6891 140.223 16 140.057 16C139.891 16 140.756 17.4882 141.98 19.3076Z" fill="url(#paint0_linear_107_64)"/>
<path d="M5.74136 61.0768H82.2279V76.452H28.8041V86.5723H80.9629V102.045H28.8041V129H5.74136V61.0768ZM236.295 130.265C228.899 130.265 222.38 129.681 216.93 128.513C211.383 127.346 207.102 125.983 204.085 124.329C201.166 122.675 198.733 120.631 196.981 118.296C195.23 115.96 194.062 113.819 193.575 111.971C193.089 110.122 192.894 108.078 192.894 105.937V104.964H217.125C217.611 112.165 222.866 115.766 237.074 115.766H242.426C247.097 115.766 249.043 115.474 252.157 115.085C255.173 114.695 257.412 114.209 258.774 113.43C260.234 112.652 261.109 111.971 261.596 111.192C262.082 110.414 262.277 109.538 262.277 108.467C262.277 107.008 261.888 105.84 261.109 104.964C260.331 104.186 258.385 103.407 255.465 102.726C252.546 102.142 248.362 101.753 242.815 101.656L235.517 101.461L230.067 101.364C205.934 100.78 193.867 94.0653 193.867 81.4148V80.539C193.867 78.3982 194.159 76.3547 194.743 74.5058C195.327 72.6568 196.495 70.8079 198.344 68.8617C200.095 67.0128 202.431 65.4558 205.35 64.1908C208.269 62.9257 212.162 61.8553 217.125 61.0768C221.99 60.201 227.732 59.8118 234.251 59.8118H241.161C247.875 59.8118 253.908 60.201 259.066 61.0768C264.321 61.9526 268.408 63.023 271.522 64.3854C274.636 65.7478 277.166 67.402 279.112 69.3483C281.058 71.2945 282.42 73.2407 283.102 75.0896C283.88 77.0358 284.269 79.0794 284.269 81.3175V82.1933H260.136C259.942 81.5122 259.747 80.831 259.552 80.3444C259.358 79.8579 258.774 79.1767 257.898 78.3009C257.022 77.4251 255.952 76.7439 254.492 76.16C253.13 75.6735 250.989 75.1869 248.264 74.7004C245.54 74.3111 243.399 74.1165 239.701 74.1165H236.295C230.651 74.1165 227.148 74.4084 224.131 74.9923C221.212 75.6735 219.363 76.3547 218.779 77.0358C218.098 77.717 217.806 78.6901 217.806 79.9552C217.806 81.1229 218.098 81.9987 218.876 82.7772C219.557 83.4584 221.212 84.1396 223.839 84.8207C226.467 85.4046 230.164 85.6965 234.933 85.7938L240.382 85.8912L247.388 85.9885C261.304 86.1831 271.23 87.9347 277.36 91.146C283.588 94.3572 286.605 99.3201 286.605 106.229V107.494C286.605 110.024 286.313 112.262 285.729 114.209C285.145 116.155 283.88 118.198 282.031 120.339C280.182 122.383 277.75 124.134 274.636 125.497C271.522 126.956 267.337 128.027 261.985 128.903C256.633 129.876 250.308 130.265 243.107 130.265H236.295ZM318.839 61.0768V129H295.679V61.0768H318.839ZM379.894 59.8118H383.008C389.528 59.8118 395.367 60.201 400.622 61.0768C405.876 61.8553 410.255 62.9257 413.856 64.2881C417.359 65.6504 420.473 67.3047 423.1 69.251C425.825 71.1972 427.869 73.1434 429.328 75.0896C430.885 77.0358 432.053 79.1767 433.026 81.5122C433.902 83.8476 434.583 85.8912 434.778 87.7401C435.07 89.589 435.167 91.4379 435.167 93.4814V96.2061C435.167 98.1524 435.07 100.099 434.778 101.947C434.583 103.699 433.902 105.84 433.026 108.175C432.053 110.511 430.885 112.652 429.426 114.695C427.966 116.641 425.922 118.588 423.198 120.631C420.473 122.577 417.359 124.232 413.856 125.691C410.353 127.054 405.974 128.124 400.622 129C395.367 129.876 389.528 130.265 383.008 130.265H379.894C373.374 130.265 367.536 129.876 362.184 129C356.929 128.124 352.453 127.054 348.949 125.691C345.446 124.232 342.332 122.577 339.608 120.631C336.883 118.588 334.839 116.641 333.282 114.695C331.823 112.652 330.655 110.511 329.779 108.175C328.806 105.84 328.222 103.699 328.027 101.947C327.736 100.099 327.638 98.1524 327.638 96.2061V93.4814C327.638 91.4379 327.736 89.589 328.027 87.7401C328.222 85.9885 328.806 83.8476 329.779 81.5122C330.655 79.1767 331.823 77.0358 333.282 75.0896C334.839 73.1434 336.883 71.1972 339.608 69.251C342.235 67.3047 345.349 65.6504 348.852 64.2881C352.453 62.9257 356.929 61.8553 362.184 61.0768C367.536 60.201 373.374 59.8118 379.894 59.8118ZM410.839 95.4277V94.1626C410.839 92.411 410.645 90.7567 410.158 89.2971C409.672 87.7401 408.796 86.1831 407.433 84.5288C406.168 82.8745 404.417 81.4148 402.276 80.3444C400.135 79.1767 397.216 78.2036 393.615 77.4251C390.599 76.7439 387.193 76.452 383.398 76.3547C382.522 76.2574 380.77 76.2574 380.186 76.2574C361.405 76.6466 351.966 82.5826 351.966 94.1626V95.233C351.966 97.3739 352.355 99.5147 353.231 101.461C354.01 103.407 355.469 105.353 357.415 107.3C359.459 109.246 362.476 110.803 366.66 111.971C370.552 113.041 375.223 113.625 380.575 113.722C381.062 113.722 382.23 113.722 383.008 113.722C387.971 113.528 392.35 113.041 395.951 111.971C400.135 110.9 403.249 109.343 405.293 107.397C407.336 105.548 408.796 103.602 409.574 101.656C410.45 99.7093 410.839 97.5685 410.839 95.4277ZM444.024 60.9795H469.909L517.299 103.796V60.9795H540.265V129.097H517.299L466.892 83.9449V129.097H444.024V60.9795Z" fill="url(#paint1_linear_107_64)"/>
<path d="M401.78 6.81982V16.114H387.128V6.81982H401.78ZM401.78 19.2766V51.8709H387.128V19.2766H401.78ZM441.737 6.10985H443.802C448.127 6.10985 451.999 6.36802 455.485 6.94891C458.97 7.46525 461.874 8.17523 464.262 9.07883C466.586 9.98244 468.651 11.0797 470.394 12.3705C472.201 13.6614 473.557 14.9523 474.525 16.2431C475.557 17.534 476.332 18.9539 476.977 20.503C477.558 22.052 478.01 23.4074 478.139 24.6337C478.333 25.86 478.397 27.0864 478.397 28.4418V30.249C478.397 31.5398 478.333 32.8307 478.139 34.057C478.01 35.2188 477.558 36.6387 476.977 38.1878C476.332 39.7368 475.557 41.1568 474.589 42.5122C473.621 43.803 472.266 45.0939 470.459 46.4493C468.651 47.7402 466.586 48.8374 464.262 49.8055C461.939 50.7091 459.034 51.4191 455.485 52C451.999 52.5809 448.127 52.8391 443.802 52.8391H441.737C437.412 52.8391 433.54 52.5809 429.99 52C426.505 51.4191 423.536 50.7091 421.212 49.8055C418.889 48.8374 416.823 47.7402 415.016 46.4493C413.209 45.0939 411.853 43.803 410.821 42.5122C409.853 41.1568 409.078 39.7368 408.497 38.1878C407.852 36.6387 407.464 35.2188 407.335 34.057C407.142 32.8307 407.077 31.5398 407.077 30.249V28.4418C407.077 27.0864 407.142 25.86 407.335 24.6337C407.464 23.4719 407.852 22.052 408.497 20.503C409.078 18.9539 409.853 17.534 410.821 16.2431C411.853 14.9523 413.209 13.6614 415.016 12.3705C416.759 11.0797 418.824 9.98244 421.148 9.07883C423.536 8.17523 426.505 7.46525 429.99 6.94891C433.54 6.36802 437.412 6.10985 441.737 6.10985ZM462.262 29.7326V28.8936C462.262 27.7318 462.133 26.6346 461.81 25.6664C461.487 24.6337 460.906 23.601 460.003 22.5038C459.164 21.4066 458.002 20.4384 456.582 19.7284C455.162 18.9539 453.226 18.3085 450.837 17.7922C448.837 17.3404 446.578 17.1467 444.06 17.0822C443.48 17.0176 442.318 17.0176 441.931 17.0176C429.474 17.2758 423.213 21.2129 423.213 28.8936V29.6035C423.213 31.0235 423.471 32.4434 424.052 33.7343C424.568 35.0252 425.537 36.316 426.827 37.6069C428.183 38.8977 430.184 39.9304 432.959 40.705C435.541 41.4149 438.639 41.8022 442.189 41.8667C442.511 41.8667 443.286 41.8667 443.802 41.8667C447.094 41.7376 449.998 41.4149 452.386 40.705C455.162 39.995 457.227 38.9623 458.583 37.6714C459.938 36.4451 460.906 35.1542 461.423 33.8634C462.003 32.5725 462.262 31.1526 462.262 29.7326ZM511.38 52.8391C506.475 52.8391 502.15 52.4518 498.536 51.6773C494.857 50.9028 492.017 49.9992 490.016 48.9019C488.08 47.8047 486.466 46.4493 485.304 44.9003C484.143 43.3512 483.368 41.9313 483.045 40.705C482.723 39.4786 482.594 38.1232 482.594 36.7033V36.0579H498.665C498.988 40.834 502.473 43.2221 511.896 43.2221H515.446C518.544 43.2221 519.835 43.0285 521.9 42.7703C523.901 42.5122 525.386 42.1894 526.289 41.6731C527.258 41.1568 527.838 40.705 528.161 40.1886C528.484 39.6723 528.613 39.0914 528.613 38.3814C528.613 37.4133 528.355 36.6387 527.838 36.0579C527.322 35.5415 526.031 35.0252 524.095 34.5734C522.159 34.1861 519.383 33.9279 515.704 33.8634L510.864 33.7343L507.249 33.6698C491.242 33.2825 483.239 28.829 483.239 20.4384V19.8575C483.239 18.4376 483.433 17.0822 483.82 15.8559C484.207 14.6295 484.982 13.4032 486.208 12.1124C487.37 10.886 488.919 9.85335 490.855 9.01429C492.791 8.17523 495.373 7.46525 498.665 6.94891C501.892 6.36802 505.7 6.10985 510.024 6.10985H514.607C519.061 6.10985 523.062 6.36802 526.483 6.94891C529.968 7.5298 532.679 8.23977 534.745 9.14338C536.81 10.047 538.488 11.1442 539.779 12.4351C541.07 13.7259 541.973 15.0168 542.425 16.2431C542.941 17.534 543.2 18.8894 543.2 20.3739V20.9548H527.193C527.064 20.503 526.935 20.0512 526.806 19.7284C526.677 19.4057 526.289 18.9539 525.708 18.373C525.128 17.7922 524.418 17.3404 523.449 16.9531C522.546 16.6304 521.126 16.3077 519.319 15.9849C517.511 15.7268 516.092 15.5977 513.639 15.5977H511.38C507.636 15.5977 505.313 15.7913 503.312 16.1786C501.376 16.6304 500.149 17.0822 499.762 17.534C499.31 17.9858 499.117 18.6312 499.117 19.4703C499.117 20.2448 499.31 20.8257 499.827 21.342C500.278 21.7938 501.376 22.2456 503.118 22.6974C504.861 23.0847 507.314 23.2783 510.476 23.3429L514.091 23.4074L518.738 23.4719C527.967 23.601 534.551 24.7628 538.617 26.8927C542.748 29.0227 544.749 32.3144 544.749 36.8969V37.736C544.749 39.4141 544.555 40.8986 544.168 42.1894C543.781 43.4803 542.941 44.8357 541.715 46.2557C540.489 47.6111 538.875 48.7728 536.81 49.6764C534.745 50.6446 531.969 51.3546 528.419 51.9355C524.869 52.5809 520.674 52.8391 515.898 52.8391H511.38Z" fill="url(#paint2_linear_107_64)"/>
<defs>
<linearGradient id="paint0_linear_107_64" x1="123.5" y1="16" x2="123.5" y2="139.837" gradientUnits="userSpaceOnUse">
<stop stop-color="#7203FF"/>
<stop offset="1" stop-color="#418DFE"/>
</linearGradient>
<linearGradient id="paint1_linear_107_64" x1="0" y1="99" x2="547" y2="99" gradientUnits="userSpaceOnUse">
<stop stop-color="#4C94FF"/>
<stop offset="1" stop-color="#8550F4"/>
</linearGradient>
<linearGradient id="paint2_linear_107_64" x1="383.837" y1="32.5" x2="547.837" y2="32.5" gradientUnits="userSpaceOnUse">
<stop stop-color="#4C94FF"/>
<stop offset="1" stop-color="#8550F4"/>
</linearGradient>
</defs>
</svg>
